<?xml version="1.0" standalone="no"?>
<!DOCTYPE svg PUBLIC "-//W3C//DTD SVG 20010904//EN"
 "http://www.w3.org/TR/2001/REC-SVG-20010904/DTD/svg10.dtd">
<svg version="1.0" xmlns="http://www.w3.org/2000/svg"
 width="500.000000pt" height="500.000000pt" viewBox="0 0 500.000000 500.000000"
 preserveAspectRatio="xMidYMid meet">
<metadata>
Created by potrace 1.14, written by Peter Selinger 2001-2017
</metadata>
<g transform="translate(0.000000,500.000000) scale(0.100000,-0.100000)"
fill="#000000" stroke="none">
<path d="M1863 4792 c-17 -10 -128 -201 -169 -290 -20 -42 -60 -147 -89 -233
-29 -86 -64 -174 -77 -195 -63 -102 -105 -206 -159 -397 -40 -142 -44 -153
-89 -197 -45 -46 -177 -213 -216 -275 -37 -58 -83 -148 -167 -325 -36 -78 -40
-93 -43 -180 -3 -92 -36 -313 -58 -388 -3 -9 -7 -33 -10 -52 -3 -19 -12 -78
-20 -130 -15 -96 -21 -153 -31 -311 l-6 -86 54 -124 c31 -68 72 -156 92 -194
37 -70 154 -252 178 -277 6 -7 30 -36 52 -63 105 -133 374 -377 670 -607 188
-146 349 -267 352 -265 1 2 3 46 4 100 1 70 5 95 13 89 6 -4 32 -25 59 -46
l47 -38 271 92 c149 50 289 98 312 107 23 9 96 59 162 111 66 52 151 115 188
140 64 43 71 51 112 136 68 141 157 386 176 487 6 35 13 105 14 154 1 50 8
110 16 135 15 47 16 71 5 108 -4 13 -3 22 3 22 17 0 183 116 244 170 55 50 59
51 90 41 38 -14 40 -12 152 154 103 154 134 228 139 340 1 17 9 41 17 55 68
108 101 208 98 294 -2 55 -5 61 -49 106 -54 56 -163 111 -262 134 -37 9 -103
29 -146 46 l-79 30 1 69 c1 63 -3 76 -46 162 -27 52 -57 130 -67 174 -19 77
-22 83 -84 140 l-64 60 0 130 c-1 72 -3 142 -6 158 -3 15 -11 53 -17 85 -5 31
-12 67 -15 80 -2 12 -16 65 -31 117 l-26 94 -55 7 c-161 20 -273 -39 -411
-217 -29 -37 -67 -78 -85 -92 l-33 -25 -69 19 c-38 10 -92 21 -120 23 -27 3
-53 5 -57 5 -4 1 -10 11 -14 24 -9 29 -49 117 -87 192 -66 132 -115 204 -193
282 -103 105 -164 136 -279 140 -44 1 -85 -1 -92 -5z"/>
</g>
</svg>
