<?xml version="1.0" standalone="no"?>
<!DOCTYPE svg PUBLIC "-//W3C//DTD SVG 20010904//EN"
 "http://www.w3.org/TR/2001/REC-SVG-20010904/DTD/svg10.dtd">
<svg version="1.0" xmlns="http://www.w3.org/2000/svg"
 width="512.000000pt" height="512.000000pt" viewBox="0 0 512.000000 512.000000"
 preserveAspectRatio="xMidYMid meet">
<metadata>
Created by potrace 1.14, written by Peter Selinger 2001-2017
</metadata>
<g transform="translate(0.000000,512.000000) scale(0.100000,-0.100000)"
fill="#000000" stroke="none">
<path d="M4958 4855 c-2 -2 -19 -5 -38 -8 -19 -3 -44 -8 -55 -10 -11 -2 -38
-8 -60 -11 -22 -4 -80 -17 -130 -28 -687 -157 -991 -267 -1207 -440 l-27 -21
-88 26 c-76 23 -109 31 -203 52 -8 2 -18 4 -21 4 -4 1 -7 36 -6 79 0 80 -2 97
-22 147 -60 148 -223 224 -390 181 -121 -31 -253 -107 -484 -280 -82 -60 -158
-111 -170 -113 -48 -7 -254 -57 -306 -74 -30 -11 -59 -19 -65 -19 -6 0 -43 24
-81 53 -201 150 -628 296 -1236 421 -244 51 -311 41 -354 -49 -16 -36 -16
-106 0 -265 3 -25 7 -74 10 -110 3 -35 7 -76 9 -90 3 -14 7 -47 10 -75 4 -27
8 -61 11 -75 2 -14 7 -47 10 -75 3 -27 10 -68 15 -90 5 -22 11 -57 14 -78 20
-133 69 -327 118 -472 56 -169 115 -274 204 -364 35 -35 62 -66 60 -70 -8 -17
-142 -241 -258 -431 -95 -157 -132 -226 -135 -256 -15 -121 216 -616 426 -914
218 -311 507 -592 782 -761 30 -19 64 -39 75 -46 43 -27 204 -107 279 -138
171 -70 360 -125 525 -151 19 -3 46 -7 60 -10 161 -27 534 -26 672 2 13 2 37
6 53 9 258 36 627 176 867 328 265 168 509 394 705 653 69 90 173 241 173 250
0 3 14 25 30 49 33 49 176 325 204 395 126 316 127 327 45 465 -29 50 -56 92
-59 95 -4 4 -265 439 -278 463 -2 4 19 28 47 53 78 70 142 174 204 334 36 93
88 277 102 360 3 19 8 42 10 50 6 22 14 65 31 165 8 50 17 101 19 115 6 34 26
178 30 215 36 352 39 428 19 471 -9 19 -28 43 -43 53 -24 18 -96 43 -103 36z"/>
</g>
</svg>
